# xmcd
#
# Track frame offsets:
#	150
#	9783
#	33652
#	51643
#	64900
#	83666
#	102564
#	123684
#	143296
#	161284
#	177257
#	198445
#	226925
#
# Disc length: 3334 seconds
#
# Revision: 0
# Processed by: cddbd v1.5.2PL0 Copyright (c) Steve Scherf et al.
# Submitted via: EasyCDDAExtractor 2010.6.0.0
#
DISCID=a80d040d
DTITLE=Viel‰kin lepposaa and Haamu - Pidemm‰lle viety
DYEAR=2012
DGENRE=hip-Hop
TTITLE0=Intro
TTITLE1=TKUOG
TTITLE2=Se mit‰ tii‰n
TTITLE3=Teknopolis
TTITLE4=Selviytymisopas
TTITLE5=El‰ hetkess‰
TTITLE6=Kemikaalii (Feat. Ronskibiitti)
TTITLE7=El‰m‰‰ suurempi (Feat. Jodarok)
TTITLE8=Digisinkku
TTITLE9=R‰ppiunelmii
TTITLE10=Hillitty sw‰g‰ (Feat. Lempi Joe)
TTITLE11=Takas kottiin (Feat. Hannibal)
TTITLE12=L.A.H
EXTD=
EXTT0=
EXTT1=
EXTT2=
EXTT3=
EXTT4=
EXTT5=
EXTT6=
EXTT7=
EXTT8=
EXTT9=
EXTT10=
EXTT11=
EXTT12=
PLAYORDER=
